<svg xmlns="http://www.w3.org/2000/svg" xmlns:xlink="http://www.w3.org/1999/xlink" width="261" zoomAndPan="magnify" viewBox="0 0 195.75 149.999998" height="200" preserveAspectRatio="xMidYMid meet" version="1.2"><defs><clipPath id="30a7cfdc1c"><path d="M 144 74 L 155.5625 74 L 155.5625 77 L 144 77 Z M 144 74 "/></clipPath></defs><g id="74903c9b4f"><path style=" stroke:none;fill-rule:evenodd;fill:#012d33;fill-opacity:1;" d="M 92.148438 63.589844 C 85.621094 52.191406 40.242188 65.96875 41.75 97.742188 C 41.960938 102.160156 41.6875 107.316406 44.972656 110.632812 C 52.953125 118.691406 79.496094 118.046875 89.632812 117.550781 C 100.21875 117.035156 134.285156 119.152344 138.46875 106.292969 C 140.070312 101.375 137.351562 97 138.195312 92.453125 C 138.980469 88.207031 147.4375 87.359375 147.742188 79.339844 C 148.035156 71.65625 140.742188 66.316406 138.308594 59.492188 C 137.039062 55.9375 137.210938 36.976562 136.054688 36.371094 C 132.839844 34.695312 124.25 49.265625 115.269531 49.046875 C 105.332031 48.804688 105.972656 30.835938 101.890625 31.859375 C 96.691406 33.15625 93.742188 57.921875 92.148438 63.589844 Z M 92.148438 63.589844 "/><path style=" stroke:none;fill-rule:evenodd;fill:#ffffff;fill-opacity:1;" d="M 102.007812 76.472656 C 99.140625 76.90625 96.265625 77.746094 93.457031 78.457031 C 93.085938 78.550781 92.859375 78.933594 92.953125 79.304688 C 93.046875 79.679688 93.429688 79.902344 93.800781 79.808594 C 96.566406 79.105469 99.394531 78.277344 102.21875 77.847656 C 102.597656 77.792969 102.859375 77.4375 102.800781 77.054688 C 102.746094 76.675781 102.390625 76.414062 102.007812 76.472656 Z M 102.007812 76.472656 "/><path style=" stroke:none;fill-rule:evenodd;fill:#ffffff;fill-opacity:1;" d="M 102.921875 82.089844 C 103.128906 82.007812 103.296875 81.824219 103.347656 81.585938 C 103.417969 81.238281 103.28125 81.046875 103.207031 80.953125 C 103.039062 80.746094 102.796875 80.613281 102.445312 80.71875 C 102.367188 80.742188 102.238281 80.800781 102.101562 80.925781 C 101.984375 81.03125 101.789062 81.28125 101.679688 81.375 C 101.078125 81.910156 100.453125 82.410156 99.839844 82.921875 C 98.214844 84.28125 96.589844 85.640625 94.925781 86.945312 C 94.621094 87.183594 94.566406 87.621094 94.804688 87.925781 C 95.042969 88.226562 95.480469 88.28125 95.785156 88.042969 C 97.464844 86.726562 99.097656 85.363281 100.734375 83.992188 C 101.355469 83.46875 101.996094 82.960938 102.605469 82.417969 C 102.671875 82.359375 102.816406 82.203125 102.921875 82.089844 Z M 101.96875 81.375 C 101.964844 81.417969 101.964844 81.460938 101.96875 81.5 C 101.964844 81.457031 101.964844 81.414062 101.96875 81.375 Z M 101.972656 81.351562 L 101.96875 81.363281 L 101.972656 81.339844 Z M 101.972656 81.351562 "/><g clip-rule="nonzero" clip-path="url(#30a7cfdc1c)"><path style=" stroke:none;fill-rule:evenodd;fill:#ffffff;fill-opacity:1;" d="M 145.515625 74.175781 C 145.40625 74.148438 145.289062 74.144531 145.171875 74.171875 C 144.777344 74.261719 144.6875 74.542969 144.65625 74.671875 C 144.628906 74.773438 144.527344 75.351562 145.148438 75.523438 C 145.210938 75.542969 145.695312 75.613281 146.410156 75.71875 C 147.078125 75.816406 147.746094 75.917969 148.414062 76.015625 C 150.417969 76.316406 152.429688 76.589844 154.449219 76.792969 C 154.832031 76.828125 155.171875 76.550781 155.210938 76.167969 C 155.25 75.785156 154.96875 75.441406 154.585938 75.402344 C 152.589844 75.203125 150.601562 74.933594 148.617188 74.636719 C 147.949219 74.539062 147.28125 74.4375 146.613281 74.335938 C 146.105469 74.261719 145.628906 74.195312 145.515625 74.175781 Z M 145.9375 75.191406 C 145.84375 75.355469 145.6875 75.484375 145.488281 75.53125 C 145.761719 75.464844 145.878906 75.300781 145.9375 75.191406 Z M 145.984375 74.613281 C 146.042969 74.757812 146.042969 74.898438 146.003906 75.035156 C 146.03125 74.925781 146.035156 74.808594 146.007812 74.691406 C 146.003906 74.664062 145.996094 74.640625 145.984375 74.613281 Z M 145.984375 74.613281 "/></g><path style=" stroke:none;fill-rule:evenodd;fill:#ffffff;fill-opacity:1;" d="M 144.886719 79.996094 C 147.515625 81.558594 149.890625 83.507812 152.625 84.921875 C 152.964844 85.097656 153.386719 84.964844 153.5625 84.625 C 153.742188 84.28125 153.605469 83.859375 153.265625 83.683594 C 150.554688 82.28125 148.203125 80.34375 145.59375 78.792969 L 145.546875 78.769531 C 145.457031 78.683594 145.34375 78.625 145.214844 78.597656 C 144.835938 78.523438 144.46875 78.765625 144.390625 79.144531 C 144.363281 79.289062 144.367188 79.472656 144.488281 79.664062 C 144.523438 79.71875 144.582031 79.792969 144.667969 79.859375 C 144.722656 79.902344 144.84375 79.96875 144.886719 79.996094 Z M 144.886719 79.996094 "/><path style=" stroke:none;fill-rule:evenodd;fill:#ffffff;fill-opacity:1;" d="M 111.3125 57.625 C 110.152344 57.429688 108.5 58.109375 107.453125 58.496094 C 98.757812 61.714844 106.21875 72.203125 112.527344 72.082031 C 120.765625 71.925781 119.609375 55.964844 111.3125 57.625 Z M 111.3125 57.625 "/><path style=" stroke:none;fill-rule:evenodd;fill:#012d33;fill-opacity:1;" d="M 113.089844 59.386719 C 112.15625 58.972656 110.628906 59.140625 109.671875 59.214844 C 101.707031 59.824219 105.730469 69.820312 111.035156 71.136719 C 117.96875 72.851562 120.382812 59.925781 113.089844 59.386719 Z M 113.089844 59.386719 "/><path style=" stroke:none;fill-rule:evenodd;fill:#ffffff;fill-opacity:1;" d="M 130.808594 57.207031 C 120.847656 57.078125 124.636719 71.984375 132.847656 71.691406 C 140.996094 71.398438 138.023438 57.074219 130.808594 57.207031 Z M 130.808594 57.207031 "/><path style=" stroke:none;fill-rule:evenodd;fill:#012d33;fill-opacity:1;" d="M 131.109375 58.597656 C 122.476562 58.492188 125.761719 70.738281 132.875 70.496094 C 139.941406 70.257812 137.359375 58.492188 131.109375 58.597656 Z M 131.109375 58.597656 "/></g></svg>